<svg width="100" height="100" viewBox="0 0 100 100" fill="none" xmlns="http://www.w3.org/2000/svg">
<circle cx="50" cy="50" r="50" fill="white"/>
  <g clip-path="url(#clip0_421_5)">
    <path d="M50 0C22.3828 0 0 22.3828 0 50C0 77.6172 22.3828 100 50 100C77.6172 100 100 77.6172 100 50C100 22.3828 77.6172 0 50 0ZM50 25C57.7676 25 64.0625 31.2969 64.0625 39.0625C64.0625 46.8281 57.7734 53.125 50 53.125C42.2344 53.125 35.9375 46.8281 35.9375 39.0625C35.9375 31.2969 42.2266 25 50 25ZM50 87.5C39.6621 87.5 30.293 83.2949 23.4961 76.5059C26.6602 68.3398 34.4727 62.5 43.75 62.5H56.25C65.5352 62.5 73.3477 68.3359 76.5039 76.5059C69.707 83.3008 60.332 87.5 50 87.5Z" fill="#EABEBF"/>
  </g>
  <defs>
    <clipPath id="clip0_421_5">
      <rect width="100" height="100" fill="white"/>
    </clipPath>
  </defs>
</svg>
