<svg width="180" height="180" viewBox="0 0 180 180" fill="none" xmlns="http://www.w3.org/2000/svg">
<rect width="180" height="180" fill="white"/>
<circle cx="88.5" cy="90.5" r="76.5" fill="#EABEBF"/>
<path d="M134.976 105.783H103.586V113.521H124.902C125.048 112.694 125.462 111.964 126.143 111.331C126.824 110.698 127.603 110.382 128.479 110.382C129.452 110.382 130.28 110.723 130.961 111.404C131.642 112.085 131.983 112.913 131.983 113.886C131.983 114.811 131.569 115.589 130.742 116.222C129.963 116.806 129.136 117.098 128.26 117.098H103.586V124.471H128.771C131.01 124.471 132.591 123.79 133.516 122.427C134.489 121.064 134.976 119.361 134.976 117.317V105.783ZM153.591 159.365C153.591 160.679 153.104 161.677 152.131 162.358C151.158 163.039 150.063 163.38 148.846 163.38H87.672V159.657H114.901V151.262H100.593V147.904H114.901V140.166H100.885C99.2303 142.453 97.6 144.473 95.994 146.225C94.388 147.928 92.344 149.534 89.862 151.043C89.4727 151.238 88.986 151.505 88.402 151.846C87.818 152.138 87.307 152.284 86.869 152.284C86.431 152.284 86.212 152.138 86.212 151.846C86.212 151.603 86.431 151.165 86.869 150.532C87.1123 150.24 87.3557 149.924 87.599 149.583C87.891 149.194 88.0857 148.902 88.183 148.707C90.1783 145.738 91.833 142.672 93.147 139.509C94.5097 136.346 95.5073 133.012 96.14 129.508C96.724 129.654 97.6243 129.897 98.841 130.238C100.106 130.53 101.347 130.846 102.564 131.187C103.781 131.479 104.584 131.698 104.973 131.844C105.216 131.893 105.338 132.063 105.338 132.355C105.338 132.55 105.168 132.963 104.827 133.596C104.486 134.18 104.121 134.764 103.732 135.348C103.391 135.932 103.124 136.346 102.929 136.589H114.901V127.829H95.118V102.06H144.32V117.025C144.32 120.042 143.712 122.33 142.495 123.887C141.278 125.396 139.624 126.418 137.531 126.953C135.438 127.488 133.078 127.756 130.45 127.756C129.428 127.756 128.284 127.78 127.019 127.829C125.802 127.829 124.683 127.829 123.661 127.829V136.589H137.385C137.385 135.226 137.872 134.083 138.845 133.158C139.867 132.233 141.035 131.771 142.349 131.771C143.42 131.771 144.442 132.233 145.415 133.158C146.388 134.034 146.875 135.032 146.875 136.151C146.875 137.27 146.413 138.219 145.488 138.998C144.563 139.777 143.566 140.166 142.495 140.166H123.661V147.904H132.421C132.47 146.785 132.908 145.836 133.735 145.057C134.611 144.278 135.584 143.889 136.655 143.889C137.628 143.889 138.553 144.254 139.429 144.984C140.305 145.714 140.743 146.59 140.743 147.612C140.743 149.023 140.232 149.997 139.21 150.532C138.237 151.019 137.142 151.262 135.925 151.262H123.661V159.657H143.809C143.906 158.489 144.417 157.418 145.342 156.445C146.315 155.423 147.41 154.912 148.627 154.912C149.892 154.912 151.036 155.326 152.058 156.153C153.08 156.98 153.591 158.051 153.591 159.365Z" fill="white"/>
<path d="M92.007 82.255C92.007 83.715 91.423 84.883 90.255 85.759C89.1357 86.5863 87.8947 87 86.532 87H26.891V83.058H80.181C80.2297 81.452 80.7407 79.9433 81.714 78.532C82.736 77.072 84.1473 76.342 85.948 76.342C87.6513 76.342 89.087 76.9017 90.255 78.021C91.423 79.1403 92.007 80.5517 92.007 82.255ZM79.597 58.092C79.597 59.552 79.0373 60.6227 77.918 61.304C76.8473 61.9853 75.655 62.326 74.341 62.326H36.016V58.311H69.158C69.2553 56.997 69.7907 55.829 70.764 54.807C71.7373 53.7363 72.9053 53.201 74.268 53.201C75.6793 53.201 76.9203 53.6633 77.991 54.588C79.0617 55.5127 79.597 56.6807 79.597 58.092ZM86.021 35.827C86.021 37.3357 85.4613 38.4793 84.342 39.258C83.2713 39.988 82.0303 40.353 80.619 40.353L30.395 40.28V36.265H74.998C75.0467 34.7563 75.582 33.4423 76.604 32.323C77.6747 31.2037 78.9643 30.644 80.473 30.644C81.933 30.644 83.2227 31.1307 84.342 32.104C85.4613 33.0287 86.021 34.2697 86.021 35.827Z" fill="white"/>
<rect x="79" y="68" width="33" height="27" fill="#EABEBF"/>
<path d="M115 87.4C115 89.7333 114.533 91.8167 113.6 93.65C112.7 95.45 111.467 97.0333 109.9 98.4C108.367 99.7667 106.65 100.95 104.75 101.95C102.883 102.917 100.967 103.75 99 104.45C97.8333 104.883 96.4667 105.283 94.9 105.65C93.3333 106.017 91.9167 106.2 90.65 106.2C90.1167 106.2 89.5833 106 89.05 105.6C88.55 105.2 88.3 104.7 88.3 104.1C88.3 103.367 88.6 102.767 89.2 102.3C89.8333 101.8 90.4833 101.55 91.15 101.55C91.8833 101.55 92.4667 101.817 92.9 102.35C93.3333 102.85 93.55 103.45 93.55 104.15C95.05 103.683 96.4167 103.117 97.65 102.45C100.783 100.817 103.317 98.7833 105.25 96.35C107.183 93.8833 108.15 90.8167 108.15 87.15C108.15 85.6167 107.75 84.2667 106.95 83.1C106.15 81.9 105.1 80.9667 103.8 80.3C102.533 79.6 101.167 79.25 99.7 79.25C98.1333 79.25 96.5 79.5 94.8 80C93.1 80.4667 91.5167 80.9833 90.05 81.55C88.3167 82.25 86.65 83.0667 85.05 84C83.4833 84.9 81.8667 85.7667 80.2 86.6C79.9667 86.7333 79.7167 86.85 79.45 86.95C79.2167 87.0167 78.9667 87.05 78.7 87.05C78.2667 87.05 77.75 86.8333 77.15 86.4C76.5833 85.9667 76.0667 85.4667 75.6 84.9C75.1667 84.3 74.95 83.7833 74.95 83.35C74.95 82.9833 75.0833 82.7667 75.35 82.7C75.65 82.6 75.9833 82.5667 76.35 82.6C76.7167 82.6 77 82.6 77.2 82.6C78.1 82.6 79.1667 82.4 80.4 82C81.6333 81.6 82.6667 81.2333 83.5 80.9C85.4 80.2 87.35 79.5 89.35 78.8C91.3833 78.0667 93.4333 77.4667 95.5 77C97.6 76.5333 99.65 76.3 101.65 76.3C104.05 76.3 106.25 76.6833 108.25 77.45C110.283 78.1833 111.917 79.3667 113.15 81C114.383 82.6333 115 84.7667 115 87.4Z" fill="white"/>
<path d="M89.9446 94.6717L89 91.9543L88.0554 94.6717L85.9328 100.778L79.4691 100.91L76.5928 100.969L78.8853 102.707L84.0371 106.613L82.165 112.801L81.3319 115.554L83.6933 113.911L89 110.218L94.3067 113.911L96.6681 115.554L95.835 112.801L93.9629 106.613L99.1147 102.707L101.407 100.969L98.5309 100.91L92.0672 100.778L89.9446 94.6717Z" fill="#F7DB70" stroke="white" stroke-width="2"/>
</svg>
