<svg width="177" height="40" viewBox="0 0 177 40" fill="none" xmlns="http://www.w3.org/2000/svg">
  <rect width="177" height="40" fill="#EABEBF"/>
  <path d="M35.016 28.44C35.016 28.92 34.824 29.304 34.44 29.592C34.072 29.864 33.664 30 33.216 30H13.608V28.704H31.128C31.144 28.176 31.312 27.68 31.632 27.216C31.968 26.736 32.432 26.496 33.024 26.496C33.584 26.496 34.056 26.68 34.44 27.048C34.824 27.416 35.016 27.88 35.016 28.44ZM30.936 20.496C30.936 20.976 30.752 21.328 30.384 21.552C30.032 21.776 29.64 21.888 29.208 21.888H16.608V20.568H27.504C27.536 20.136 27.712 19.752 28.032 19.416C28.352 19.064 28.736 18.888 29.184 18.888C29.648 18.888 30.056 19.04 30.408 19.344C30.76 19.648 30.936 20.032 30.936 20.496ZM33.048 13.176C33.048 13.672 32.864 14.048 32.496 14.304C32.144 14.544 31.736 14.664 31.272 14.664L14.76 14.64V13.32H29.424C29.44 12.824 29.616 12.392 29.952 12.024C30.304 11.656 30.728 11.472 31.224 11.472C31.704 11.472 32.128 11.632 32.496 11.952C32.864 12.256 33.048 12.664 33.048 13.176Z" fill="white"/>
  <path d="M81.088 12.504H70.768V15.048H77.776C77.824 14.776 77.96 14.536 78.184 14.328C78.408 14.12 78.664 14.016 78.952 14.016C79.272 14.016 79.544 14.128 79.768 14.352C79.992 14.576 80.104 14.848 80.104 15.168C80.104 15.472 79.968 15.728 79.696 15.936C79.44 16.128 79.168 16.224 78.88 16.224H70.768V18.648H79.048C79.784 18.648 80.304 18.424 80.608 17.976C80.928 17.528 81.088 16.968 81.088 16.296V12.504ZM87.208 30.12C87.208 30.552 87.048 30.88 86.728 31.104C86.408 31.328 86.048 31.44 85.648 31.44H65.536V30.216H74.488V27.456H69.784V26.352H74.488V23.808H69.88C69.336 24.56 68.8 25.224 68.272 25.8C67.744 26.36 67.072 26.888 66.256 27.384C66.128 27.448 65.968 27.536 65.776 27.648C65.584 27.744 65.416 27.792 65.272 27.792C65.128 27.792 65.056 27.744 65.056 27.648C65.056 27.568 65.128 27.424 65.272 27.216C65.352 27.12 65.432 27.016 65.512 26.904C65.608 26.776 65.672 26.68 65.704 26.616C66.36 25.64 66.904 24.632 67.336 23.592C67.784 22.552 68.112 21.456 68.32 20.304C68.512 20.352 68.808 20.432 69.208 20.544C69.624 20.64 70.032 20.744 70.432 20.856C70.832 20.952 71.096 21.024 71.224 21.072C71.304 21.088 71.344 21.144 71.344 21.24C71.344 21.304 71.288 21.44 71.176 21.648C71.064 21.84 70.944 22.032 70.816 22.224C70.704 22.416 70.616 22.552 70.552 22.632H74.488V19.752H67.984V11.28H84.16V16.2C84.16 17.192 83.96 17.944 83.56 18.456C83.16 18.952 82.616 19.288 81.928 19.464C81.24 19.64 80.464 19.728 79.6 19.728C79.264 19.728 78.888 19.736 78.472 19.752C78.072 19.752 77.704 19.752 77.368 19.752V22.632H81.88C81.88 22.184 82.04 21.808 82.36 21.504C82.696 21.2 83.08 21.048 83.512 21.048C83.864 21.048 84.2 21.2 84.52 21.504C84.84 21.792 85 22.12 85 22.488C85 22.856 84.848 23.168 84.544 23.424C84.24 23.68 83.912 23.808 83.56 23.808H77.368V26.352H80.248C80.264 25.984 80.408 25.672 80.68 25.416C80.968 25.16 81.288 25.032 81.64 25.032C81.96 25.032 82.264 25.152 82.552 25.392C82.84 25.632 82.984 25.92 82.984 26.256C82.984 26.72 82.816 27.04 82.48 27.216C82.16 27.376 81.8 27.456 81.4 27.456H77.368V30.216H83.992C84.024 29.832 84.192 29.48 84.496 29.16C84.816 28.824 85.176 28.656 85.576 28.656C85.992 28.656 86.368 28.792 86.704 29.064C87.04 29.336 87.208 29.688 87.208 30.12Z" fill="white"/>
  <path d="M112.28 20.952C112.28 21.32 112.112 21.632 111.776 21.888C111.44 22.128 111.096 22.248 110.744 22.248C109.272 22.248 107.896 22.128 106.616 21.888C105.336 21.648 104.008 21.28 102.632 20.784V30.504H99.8V12.624H102.632V17.952C103.128 18.432 103.768 18.888 104.552 19.32C105.352 19.752 106.176 20.136 107.024 20.472C107.888 20.792 108.648 21.048 109.304 21.24C109.288 21.192 109.272 21.144 109.256 21.096C109.256 21.048 109.256 21 109.256 20.952C109.256 20.552 109.424 20.216 109.76 19.944C110.096 19.656 110.448 19.512 110.816 19.512C111.184 19.512 111.52 19.664 111.824 19.968C112.128 20.256 112.28 20.584 112.28 20.952Z" fill="white"/>
  <path d="M136.672 13.608C136.352 14.152 135.936 14.704 135.424 15.264C134.928 15.824 134.392 16.36 133.816 16.872C133.256 17.368 132.72 17.816 132.208 18.216V30.48H129.328L129.352 20.136C128.968 20.392 128.456 20.696 127.816 21.048C127.176 21.384 126.488 21.712 125.752 22.032C125.032 22.352 124.336 22.624 123.664 22.848C122.992 23.056 122.424 23.16 121.96 23.16C121.528 23.16 121.16 23.048 120.856 22.824C120.568 22.6 120.424 22.264 120.424 21.816C120.424 21.448 120.576 21.112 120.88 20.808C121.2 20.504 121.544 20.352 121.912 20.352C122.312 20.352 122.64 20.504 122.896 20.808C123.168 21.096 123.312 21.432 123.328 21.816C123.744 21.608 124.144 21.4 124.528 21.192C124.928 20.968 125.312 20.728 125.68 20.472C126.672 19.768 127.672 18.96 128.68 18.048C129.688 17.136 130.64 16.176 131.536 15.168C132.432 14.16 133.216 13.152 133.888 12.144L136.672 13.608Z" fill="white"/>
  <path d="M164.624 17.088C164.624 17.68 164.512 18.328 164.288 19.032C164.064 19.72 163.776 20.392 163.424 21.048C163.088 21.688 162.752 22.248 162.416 22.728C161.76 23.688 160.992 24.592 160.112 25.44C159.248 26.288 158.296 26.992 157.256 27.552C155.992 28.256 154.608 28.784 153.104 29.136C151.616 29.472 150.152 29.64 148.712 29.64V14.376H151.568V27.096C152.704 26.872 153.864 26.512 155.048 26.016C156.232 25.52 157.368 24.904 158.456 24.168C159.544 23.416 160.496 22.56 161.312 21.6C162.144 20.64 162.76 19.6 163.16 18.48C162.76 18.464 162.392 18.328 162.056 18.072C161.72 17.816 161.552 17.464 161.552 17.016C161.552 16.616 161.728 16.296 162.08 16.056C162.432 15.816 162.784 15.696 163.136 15.696C163.504 15.696 163.84 15.84 164.144 16.128C164.464 16.4 164.624 16.72 164.624 17.088Z" fill="white"/>
  <path d="M57.6 20.16C57.6 21.0933 57.4133 21.9267 57.04 22.66C56.68 23.38 56.1867 24.0133 55.56 24.56C54.9467 25.1067 54.26 25.58 53.5 25.98C52.7533 26.3667 51.9867 26.7 51.2 26.98C50.7333 27.1533 50.1867 27.3133 49.56 27.46C48.9333 27.6067 48.3667 27.68 47.86 27.68C47.6467 27.68 47.4333 27.6 47.22 27.44C47.02 27.28 46.92 27.08 46.92 26.84C46.92 26.5467 47.04 26.3067 47.28 26.12C47.5333 25.92 47.7933 25.82 48.06 25.82C48.3533 25.82 48.5867 25.9267 48.76 26.14C48.9333 26.34 49.02 26.58 49.02 26.86C49.62 26.6733 50.1667 26.4467 50.66 26.18C51.9133 25.5267 52.9267 24.7133 53.7 23.74C54.4733 22.7533 54.86 21.5267 54.86 20.06C54.86 19.4467 54.7 18.9067 54.38 18.44C54.06 17.96 53.64 17.5867 53.12 17.32C52.6133 17.04 52.0667 16.9 51.48 16.9C50.8533 16.9 50.2 17 49.52 17.2C48.84 17.3867 48.2067 17.5933 47.62 17.82C46.9267 18.1 46.26 18.4267 45.62 18.8C44.9933 19.16 44.3467 19.5067 43.68 19.84C43.5867 19.8933 43.4867 19.94 43.38 19.98C43.2867 20.0067 43.1867 20.02 43.08 20.02C42.9067 20.02 42.7 19.9333 42.46 19.76C42.2333 19.5867 42.0267 19.3867 41.84 19.16C41.6667 18.92 41.58 18.7133 41.58 18.54C41.58 18.3933 41.6333 18.3067 41.74 18.28C41.86 18.24 41.9933 18.2267 42.14 18.24C42.2867 18.24 42.4 18.24 42.48 18.24C42.84 18.24 43.2667 18.16 43.76 18C44.2533 17.84 44.6667 17.6933 45 17.56C45.76 17.28 46.54 17 47.34 16.72C48.1533 16.4267 48.9733 16.1867 49.8 16C50.64 15.8133 51.46 15.72 52.26 15.72C53.22 15.72 54.1 15.8733 54.9 16.18C55.7133 16.4733 56.3667 16.9467 56.86 17.6C57.3533 18.2533 57.6 19.1067 57.6 20.16Z" fill="white"/>
  <path d="M48.2378 24.9227L48 24.191L47.7622 24.9227L47.1448 26.8229H45.1468H44.3774L44.9999 27.2752L46.6163 28.4496L45.9989 30.3498L45.7611 31.0816L46.3836 30.6293L48 29.4549L49.6164 30.6293L50.2389 31.0816L50.0011 30.3498L49.3837 28.4496L51.0001 27.2752L51.6226 26.8229H50.8532H48.8552L48.2378 24.9227Z" fill="#F7DB70" stroke="white" stroke-width="0.5"/>
</svg>

