<svg width="20" height="16" viewBox="0 0 25 21" fill="none" xmlns="http://www.w3.org/2000/svg">
  <rect width="25" height="21" fill="white"/>
  <path d="M12.4958 0C12.8951 0 13.2596 0.215332 13.4333 0.554531L16.4107 6.34922L23.0643 7.28027C23.455 7.33359 23.7761 7.59199 23.902 7.94473C24.0235 8.30156 23.9237 8.69121 23.6459 8.94961L18.8195 13.4695L19.961 19.8475C20.0261 20.2166 19.8656 20.5939 19.54 20.8113C19.2189 21.0287 18.7544 21.0574 18.4419 20.8811L12.4958 17.8787L6.51486 20.8811C6.20236 21.0574 5.77701 21.0287 5.45149 20.8113C5.13031 20.5939 4.96972 20.2166 4.99576 19.8475L6.17197 13.4695L1.35036 8.94961C1.06998 8.69121 0.970584 8.30156 1.09385 7.94473C1.21668 7.59199 1.5409 7.33359 1.93109 7.28027L8.58083 6.34922L11.5583 0.554531C11.7362 0.215291 12.0965 0 12.4958 0ZM12.4958 3.23818L10.2171 7.67812C10.0652 7.96934 9.77006 8.17441 9.43152 8.22363L4.29611 8.9373L8.02527 12.4277C8.26399 12.6533 8.3725 12.9773 8.31607 13.2932L7.43933 18.1986L12.0053 15.8936C12.3135 15.7377 12.6824 15.7377 12.9862 15.8936L17.5522 18.1986L16.6754 13.2932C16.619 12.9773 16.7319 12.6533 16.9706 12.4277L20.6989 8.9373L15.5643 8.22363C15.2215 8.17441 14.9263 7.96934 14.7787 7.67812L12.4958 3.23818Z" fill="#E5E5E5"/>
</svg>

