<svg width="20" height="17" viewBox="0 0 25 21" fill="none" xmlns="http://www.w3.org/2000/svg">
  <g clip-path="url(#clip0_143_20)">
    <path d="M16.5452 6.16467L22.7822 7.0342C23.2987 7.10392 23.7327 7.44845 23.8977 7.92013C24.0626 8.39592 23.9281 8.91271 23.5548 9.26545L19.0322 13.4572L20.0999 19.4701C20.1867 19.9623 19.9741 20.4627 19.54 20.7539C19.1104 21.0451 18.5418 21.082 18.0774 20.8483L12.5045 18.0387L6.93587 20.8483C6.46712 21.082 5.89855 21.0451 5.46886 20.7539C5.03917 20.4627 4.82216 19.9623 4.9133 19.4701L5.98101 13.4572L1.45758 9.26545C1.08388 8.91271 0.951065 8.39592 1.11513 7.92013C1.27876 7.44845 1.71148 7.10392 2.23188 7.0342L8.46365 6.16467L11.2588 0.737068C11.4888 0.285239 11.9749 -0.00158691 12.5045 -0.00158691C13.0383 -0.00158691 13.5244 0.285239 13.7544 0.737068L16.5452 6.16467Z" fill="#F7DB70"/>
  </g>
  <defs>
    <clipPath id="clip0_143_20">
      <rect width="25" height="21" fill="white"/>
    </clipPath>
  </defs>
</svg>

