<svg width="20" height="16" viewBox="0 0 25 21" fill="none" xmlns="http://www.w3.org/2000/svg">
  <g clip-path="url(#clip0_143_48)">
    <path d="M12.5001 18.0387L6.93587 20.8483C6.46712 21.082 5.89855 21.0451 5.46886 20.7539C5.03917 20.4627 4.82216 19.9623 4.9133 19.4701L5.98101 13.4572L1.45758 9.26545C1.08388 8.91271 0.951065 8.39592 1.11513 7.92013C1.27876 7.44845 1.71148 7.10392 2.23188 7.0342L8.46365 6.16467L11.2588 0.737068C11.4888 0.286921 11.9706 0.000554102 12.461 -0.00158691L12.5001 18.0387ZM18.8022 21C18.7544 21.0041 18.7067 21.0041 18.659 21H18.8022Z" fill="#F7DB70"/>
    <path d="M12.5001 15.8033L17.8951 18.4857L16.8664 12.8092L21.2327 8.78965L15.1997 7.96113L12.5001 2.79316V0C12.9949 0 13.4897 0.241992 13.7457 0.730078L16.5799 6.16055L22.9211 7.03008C24.0582 7.18594 24.514 8.51074 23.6893 9.26953L19.1017 13.4941L20.1867 19.4619C20.382 20.5324 19.1885 21.3486 18.1728 20.8441L12.5001 18.0305V15.8033Z" fill="#E5E5E5"/>
    <path d="M12.5 0V0H12.31C12.2144 0 12.134 0.0698858 12.1228 0.164802C12.0527 0.761956 11.8386 2.77742 12.1429 2.77742C12.5 2.77742 12.5 2.77742 12.5 2.77742V0V0Z" fill="#F7DB70"/>
  </g>
  <defs>
    <clipPath id="clip0_143_48">
      <rect width="25" height="21" fill="white"/>
    </clipPath>
  </defs>
</svg>

