<svg width="45" height="41" viewBox="0 0 35 31" fill="none" xmlns="http://www.w3.org/2000/svg">
  <g clip-path="url(#clip0_143_48)">
    <path d="M17.5 26.6286L9.71008 30.776C9.05383 31.1211 8.25782 31.0666 7.65626 30.6368C7.0547 30.2069 6.75088 29.4682 6.87848 28.7416L8.37327 19.8655L2.04046 13.6776C1.51728 13.1569 1.33135 12.394 1.56103 11.6916C1.79011 10.9954 2.39593 10.4868 3.12449 10.3838L11.849 9.10024L15.7622 1.08808C16.0842 0.423573 16.7587 0.000841211 17.4453 -0.00231934L17.5 26.6286ZM26.3229 31C26.2561 31.0061 26.1892 31.0061 26.1224 31H26.3229Z" fill="#F7DB70"/>
    <path d="M17.5 23.3287L25.053 27.2885L23.6129 18.9088L29.7257 12.9752L21.2795 11.7521L17.5 4.12324V0C18.1927 0 18.8854 0.357227 19.244 1.07773L23.2118 9.09414L32.0894 10.3777C33.6814 10.6078 34.3195 12.5635 33.165 13.6836L26.7422 19.9199L28.2613 28.7295C28.5347 30.3098 26.8637 31.5146 25.4419 30.7699L17.5 26.6164V23.3287Z" fill="#E5E5E5"/>
    <path d="M17.5 0V0H17.2348C17.1008 0 16.9882 0.0980128 16.9733 0.231228C16.8766 1.09731 16.5721 4.1 17 4.1C17.5 4.1 17.5 4.1 17.5 4.1V0V0Z" fill="#F7DB70"/>
  </g>
  <defs>
    <clipPath id="clip0_143_48">
      <rect width="35" height="31" fill="white"/>
    </clipPath>
  </defs>
</svg>

