<svg width="45" height="41" viewBox="0 0 35 31" fill="none" xmlns="http://www.w3.org/2000/svg">
  <path d="M17.4939 0C18.0529 0 18.5633 0.317871 18.8064 0.818594L22.9748 9.37266L32.2899 10.7471C32.8368 10.8258 33.2864 11.2072 33.4626 11.7279C33.6328 12.2547 33.493 12.8299 33.1041 13.2113L26.3472 19.8836L27.9453 29.2986C28.0364 29.8436 27.8116 30.4006 27.3558 30.7215C26.9062 31.0424 26.256 31.0848 25.8185 30.8244L17.4939 26.3924L9.1206 30.8244C8.6831 31.0848 8.08762 31.0424 7.63189 30.7215C7.18223 30.4006 6.95741 29.8436 6.99387 29.2986L8.64057 19.8836L1.89031 13.2113C1.49777 12.8299 1.35862 12.2547 1.53119 11.7279C1.70315 11.2072 2.15706 10.8258 2.70333 10.7471L12.013 9.37266L16.1814 0.818594C16.4305 0.317811 16.9348 0 17.4939 0ZM17.4939 4.78018L14.3038 11.3344C14.0911 11.7643 13.6779 12.067 13.2039 12.1396L6.01435 13.1932L11.2352 18.3457C11.5694 18.6787 11.7213 19.157 11.6423 19.6232L10.4149 26.8646L16.8072 23.4619C17.2387 23.2318 17.7552 23.2318 18.1805 23.4619L24.5729 26.8646L23.3454 19.6232C23.2664 19.157 23.4244 18.6787 23.7586 18.3457L28.9782 13.1932L21.7899 12.1396C21.3098 12.067 20.8966 11.7643 20.69 11.3344L17.4939 4.78018Z" fill="#E5E5E5"/>
</svg>

