<svg width="45" height="42" viewBox="0 0 35 31" fill="none" xmlns="http://www.w3.org/2000/svg">
  <g clip-path="url(#clip0_143_20)">
    <path d="M23.1632 9.10024L31.895 10.3838C32.6181 10.4868 33.2257 10.9954 33.4566 11.6916C33.6875 12.394 33.4991 13.1569 32.9766 13.6776L26.645 19.8655L28.1398 28.7416C28.2613 29.4682 27.9635 30.2069 27.3559 30.6368C26.7543 31.0666 25.9583 31.1211 25.3082 30.776L17.5061 26.6286L9.71008 30.776C9.05383 31.1211 8.25782 31.0666 7.65626 30.6368C7.0547 30.2069 6.75088 29.4682 6.87848 28.7416L8.37327 19.8655L2.04046 13.6776C1.51728 13.1569 1.33135 12.394 1.56103 11.6916C1.79011 10.9954 2.39593 10.4868 3.12449 10.3838L11.849 9.10024L15.7622 1.08808C16.0842 0.421091 16.7648 -0.00231934 17.5061 -0.00231934C18.2535 -0.00231934 18.934 0.421091 19.2561 1.08808L23.1632 9.10024Z" fill="#F7DB70"/>
  </g>
  <defs>
    <clipPath id="clip0_143_20">
      <rect width="35" height="31" fill="white"/>
    </clipPath>
  </defs>
</svg>

