<svg width="38" height="51" viewBox="0 0 38 51" fill="none" xmlns="http://www.w3.org/2000/svg">
  <path d="M38 19.125C38 27.8309 26.4219 43.3301 21.3453 49.725C20.1281 51.249 17.8719 51.249 16.6547 49.725C11.4891 43.3301 0 27.8309 0 19.125C0 8.56242 8.50646 0 19 0C29.4896 0 38 8.56242 38 19.125Z" fill="black"/>
  <path d="M18.5489 6.92705C18.8483 6.00574 20.1517 6.00574 20.4511 6.92705L22.5309 13.3283C22.6648 13.7403 23.0488 14.0193 23.482 14.0193L30.2126 14.0193C31.1814 14.0193 31.5841 15.2589 30.8004 15.8283L25.3552 19.7844C25.0047 20.0391 24.8581 20.4905 24.9919 20.9025L27.0718 27.3037C27.3712 28.225 26.3167 28.9911 25.533 28.4217L20.0878 24.4656C19.7373 24.2109 19.2627 24.2109 18.9122 24.4656L13.467 28.4217C12.6833 28.9911 11.6288 28.225 11.9282 27.3037L14.0081 20.9025C14.1419 20.4905 13.9953 20.0391 13.6448 19.7844L8.19958 15.8283C7.41586 15.2589 7.81864 14.0193 8.78736 14.0193L15.518 14.0193C15.9512 14.0193 16.3352 13.7403 16.4691 13.3283L18.5489 6.92705Z" fill="#F7DB70"/>
</svg>
